<svg width="271" height="45" viewBox="0 0 271 45" fill="none" xmlns="http://www.w3.org/2000/svg">
<path d="M264.062 23.3975L259.682 22.8571C259.553 19.3587 258.301 16.3273 256.062 14.0903C253.816 11.8452 250.737 10.5583 247.16 10.3686L246.655 5.99086L267.283 0L270.053 2.76943L264.062 23.3975ZM255.431 8.09638C256.824 8.85542 258.095 9.80265 259.222 10.9287C260.313 12.0196 261.232 13.2405 261.971 14.5721L264.627 5.42572L255.431 8.09638Z" fill="#E74C3C"/>
<path d="M8.76693 40.4482L0.97497 18.7032H5.80719L11.7569 36.8241H11.183L17.1629 18.7032H21.7535L13.9616 40.4482H8.76693ZM23.9983 40.4482V18.7032H28.6493V40.4482H23.9983ZM31.5458 40.4482V18.7032H41.2707C42.8412 18.7032 44.2103 18.9751 45.3781 19.5187C46.5459 20.0422 47.4519 20.7871 48.0962 21.7536C48.7405 22.72 49.0627 23.8475 49.0627 25.1361C49.0627 26.4046 48.7405 27.522 48.0962 28.4885C47.4519 29.4348 46.5459 30.1798 45.3781 30.7234C44.2103 31.2469 42.8412 31.5086 41.2707 31.5086H35.2304V28.0959H41.1499C42.2573 28.0959 43.1029 27.8442 43.6868 27.3408C44.2908 26.8174 44.5928 26.0925 44.5928 25.1663C44.5928 24.22 44.3009 23.5053 43.717 23.022C43.1331 22.5187 42.2774 22.267 41.1499 22.267H36.1969V40.4482H31.5458ZM43.8076 40.4482L35.0794 29.1529H40.0022L50.0895 40.4482H43.8076ZM51.055 40.4482L58.847 18.7032H62.8335L55.6758 40.4482H51.055ZM67.0013 40.4482L59.8738 18.7032H64.0416L71.8335 40.4482H67.0013ZM55.1624 32.0221H67.3637V35.6462H55.1624V32.0221ZM74.0784 40.4482V18.7032H78.7294V40.4482H74.0784ZM76.2529 40.4482V36.8845H89.1791V40.4482H76.2529ZM97.6437 40.4482V18.7032H102.295V40.4482H97.6437ZM111.718 40.4482V18.7032H116.369V40.4482H111.718ZM99.8182 27.3408H113.832V30.9046H99.8182V27.3408ZM129.921 40.7503C128.31 40.7503 126.82 40.4784 125.451 39.9348C124.102 39.3912 122.924 38.6261 121.917 37.6395C120.931 36.6328 120.156 35.4449 119.592 34.0758C119.048 32.6865 118.776 31.1563 118.776 29.4851C118.776 27.2704 119.25 25.3375 120.196 23.6865C121.142 22.0153 122.451 20.7167 124.122 19.7905C125.813 18.8643 127.736 18.4012 129.891 18.4012C132.085 18.4012 134.018 18.8643 135.689 19.7905C137.36 20.7167 138.669 22.0153 139.615 23.6865C140.582 25.3576 141.065 27.3006 141.065 29.5153C141.065 31.1664 140.783 32.6865 140.219 34.0758C139.676 35.4449 138.901 36.6328 137.894 37.6395C136.907 38.6261 135.729 39.3912 134.36 39.9348C133.011 40.4784 131.531 40.7503 129.921 40.7503ZM129.891 37.0657C131.159 37.0657 132.276 36.7435 133.243 36.0992C134.209 35.4549 134.964 34.569 135.508 33.4415C136.072 32.2939 136.354 30.965 136.354 29.4549C136.354 27.965 136.082 26.6663 135.538 25.559C134.995 24.4516 134.24 23.5959 133.273 22.9918C132.307 22.3878 131.179 22.0858 129.891 22.0858C128.622 22.0858 127.505 22.3878 126.538 22.9918C125.572 23.5959 124.817 24.4516 124.273 25.559C123.75 26.6462 123.488 27.9449 123.488 29.4549C123.488 30.9851 123.76 32.3241 124.303 33.4717C124.847 34.5992 125.602 35.4851 126.568 36.1294C127.535 36.7536 128.642 37.0657 129.891 37.0657ZM143.477 40.4482V18.7032H148.128V40.4482H143.477ZM145.651 40.4482V36.8845H158.577V40.4482H145.651ZM164.13 40.4482V36.8241H169.626C171.197 36.8241 172.526 36.512 173.613 35.8878C174.72 35.2435 175.556 34.3677 176.12 33.2603C176.704 32.1529 176.995 30.8845 176.995 29.4549C176.995 28.0455 176.714 26.8073 176.15 25.7402C175.586 24.6731 174.751 23.8375 173.643 23.2335C172.556 22.6294 171.217 22.3274 169.626 22.3274H164.22V18.7032H169.626C172.063 18.7032 174.187 19.1462 175.999 20.0321C177.811 20.8979 179.21 22.1462 180.197 23.7771C181.204 25.3878 181.707 27.3006 181.707 29.5153C181.707 31.7301 181.204 33.663 180.197 35.314C179.19 36.9449 177.781 38.2133 175.969 39.1194C174.177 40.0053 172.073 40.4482 169.657 40.4482H164.13ZM161.291 40.4482V18.7032H165.942V40.4482H161.291ZM184.119 40.4482V18.7032H188.77V40.4482H184.119ZM191.787 40.4482V18.7032H197.797L207.462 37.9113L205.982 38.2737V18.7032H210.512V40.4482H204.502L194.837 21.2402L196.317 20.8777V40.4482H191.787ZM224.275 40.7503C221.92 40.7503 219.896 40.2872 218.205 39.361C216.514 38.4348 215.205 37.1362 214.279 35.465C213.373 33.7939 212.92 31.8408 212.92 29.6059C212.92 27.3912 213.383 25.4482 214.309 23.7771C215.235 22.0858 216.514 20.767 218.145 19.8207C219.796 18.8744 221.708 18.4012 223.883 18.4012C225.675 18.4012 227.275 18.7234 228.685 19.3677C230.114 20.012 231.262 20.8979 232.128 22.0254C233.014 23.1328 233.537 24.4214 233.698 25.8912H229.047C228.846 24.7033 228.282 23.7771 227.356 23.1126C226.45 22.4281 225.312 22.0858 223.943 22.0858C222.675 22.0858 221.567 22.3878 220.621 22.9918C219.675 23.5757 218.94 24.4214 218.416 25.5288C217.893 26.6361 217.631 27.965 217.631 29.5153C217.631 31.1261 217.893 32.5053 218.416 33.6529C218.94 34.7804 219.705 35.6462 220.712 36.2502C221.739 36.8341 222.997 37.1261 224.487 37.1261C225.695 37.1261 226.722 36.9751 227.567 36.6731C228.413 36.3711 229.057 35.9482 229.5 35.4046L233.91 37.1563C232.742 38.3241 231.383 39.2201 229.833 39.8442C228.302 40.4482 226.45 40.7503 224.275 40.7503ZM229.259 37.1563V31.1764L230.195 32.1127H224.457V28.5489H233.91V37.1563H229.259ZM245.498 40.7201C242.679 40.7201 240.424 40.0959 238.733 38.8476C237.041 37.5791 236.055 35.7972 235.773 33.5019H240.243C240.384 34.6697 240.948 35.5959 241.934 36.2805C242.921 36.9449 244.179 37.2771 245.709 37.2771C246.958 37.2771 247.914 37.0556 248.578 36.6127C249.263 36.1697 249.605 35.5758 249.605 34.8308C249.605 34.1261 249.404 33.5623 249.001 33.1395C248.599 32.6966 247.904 32.3442 246.917 32.0825L242.87 30.965C240.797 30.3811 239.276 29.5858 238.31 28.5791C237.364 27.5523 236.89 26.2737 236.89 24.7435C236.89 23.4348 237.223 22.3073 237.887 21.361C238.572 20.3945 239.528 19.6596 240.756 19.1563C241.984 18.6328 243.424 18.371 245.075 18.371C247.612 18.371 249.635 18.9751 251.146 20.1831C252.656 21.371 253.511 22.9516 253.713 24.9247H249.243C249.041 23.8576 248.548 23.0724 247.763 22.569C246.998 22.0657 246.011 21.814 244.803 21.814C243.756 21.814 242.921 22.0153 242.297 22.418C241.672 22.8207 241.36 23.3643 241.36 24.0489C241.36 24.5724 241.531 25.0556 241.874 25.4986C242.216 25.9214 242.931 26.2838 244.018 26.5858L248.065 27.7033C250.199 28.2872 251.729 29.0925 252.656 30.1194C253.602 31.1261 254.075 32.4046 254.075 33.9549C254.075 36.1294 253.32 37.8006 251.81 38.9684C250.3 40.1362 248.196 40.7201 245.498 40.7201Z" fill="white"/>
</svg>
